<svg id="Layer_1" xmlns="http://www.w3.org/2000/svg" viewBox="0 0 190 139.28"><defs><style>.cls-1{fill:#eb1b25}.cls-2{fill:#201b1a}</style></defs><path class="cls-1" d="M60.15 0c5.63 0 10.15 1.43 14.42 3.77 5.84 3.21 10.31 7.88 14.07 13.3 2.6 3.75 4.95 7.64 6.67 11.89 1.53 3.77 2.58 7.67 3.06 11.72.35 2.99.48 5.98.21 9-.2 2.2-.47 4.39-.92 6.56-.8 3.94-2.08 7.74-3.6 11.46-1.76 4.29-3.92 8.35-6.77 12.03-3.17 4.11-7.01 7.43-11.59 9.9-2.6 1.4-5.31 2.55-8.21 3.19-1.33.29-2.68.54-4.03.52-3.02-.04-6.05-.17-8.91-1.33-4.05-1.64-6.51-4.61-7.56-8.81-.69-2.76-.73-5.56-.52-8.38.16-2.11.38-4.21.76-6.29 1.25-6.93 4.15-12.99 9.46-17.76 5.76-5.17 12.15-9.37 19.35-12.28.18-.07.36-.15.53-.25 1.47-.82 1.76-1.62.93-3.1-3.35-5.98-7.43-11.39-12.68-15.86-3.95-3.36-8.34-6.05-12.8-8.64-1.58-.91-3.15-1.8-4.91-2.38-1.81-.6-2.14-2.56-.71-3.84.99-.89 2.23-1.41 3.42-1.95C53.34.88 57-.02 60.15 0Zm24.59 56.64c.07-1.01-.07-2.14-.26-3.27-.13-.8-.28-1.6-.5-2.39-.33-1.19-.64-2.4-1.29-3.47-.51-.83-1.02-.96-1.82-.4-.19.13-.37.28-.55.43-3.14 2.76-6.02 5.74-8.41 9.2-3.14 4.54-5.43 9.39-5.96 14.95-.2 2.15-.03 4.27.99 6.23.95 1.82 2.68 2.66 4.55 2.07 3.03-.95 5.64-2.57 7.43-5.29 2-3.04 3.41-6.34 4.43-9.82.78-2.64 1.43-5.31 1.38-8.24ZM123.93 63.11c.93-.84 1.69-1.68 2.33-2.61 1.18-1.71 2.12-3.56 3.23-5.31 2.78-4.37 5.84-8.54 9.22-12.46 1.11-1.29 2.21-2.6 3.54-3.69 1.37-1.12 2.9-1.88 4.67-2.04 1.29-.12 2.5.28 3.64.84 2.93 1.46 4.66 3.88 5.49 6.99.34 1.28.47 2.59.49 3.91.03 2.27.11 4.54.13 6.81.01 1.12.1 2.25.06 3.37-.14 4.21-.16 8.41-.16 12.62 0 2.43.36 4.81 1.56 6.96 1.28 2.3 1.1 4.51-.1 6.75-1.16 2.16-2.67 4.01-4.78 5.28-2.45 1.48-5.1 1.65-7.81.91-3.16-.87-5.44-2.81-6.73-5.84-.75-1.76-1.03-3.64-1.2-5.54-.32-3.43.15-6.81.53-10.2.4-3.58.93-7.14 1.46-10.71.1-.67.21-1.34.36-2 .11-.49-.2-.57-.53-.73-.37-.18-.47.05-.61.3-4.57 7.86-9.3 15.62-14.27 23.23-1.8 2.76-3.51 5.58-5.52 8.19-1.47 1.91-3.37 3.29-5.78 3.74-3.1.59-5.97.18-8.2-2.34-1.57-1.78-1.89-3.88-1.49-6.15.39-2.19.73-4.39 1.1-6.59.35-2.06.72-4.12 1.08-6.18.23-1.33.46-2.67.69-4.01.57-3.24 1.19-6.47 1.85-9.7.6-2.92 1.22-5.84 1.98-8.72 1.02-3.86 2.86-7.22 6.35-9.41 2.46-1.54 5.18-2.06 8.04-1.45 1.75.37 2.89 1.59 3.34 3.76.73 3.48.01 6.84-1.05 10.12-1.2 3.71-2.09 7.5-2.88 11.32-.03.14-.02.29-.03.57ZM4.71 83.61c.02-2.58.46-4.73.92-6.87 1.17-5.35 3.29-10.37 5.33-15.42 1.11-2.75 2.12-5.54 3.46-8.19 1.66-3.3 3.48-6.49 6-9.23 1.85-2.01 4.14-3.37 6.66-4.35 1.17-.46 2.36-.88 3.62-1.07 2.45-.36 4.12 1.15 4.68 3.06.49 1.67.05 3.23-.36 4.8-.79 2.96-2.25 5.65-3.52 8.41-1.93 4.2-3.45 8.56-4.75 12.99-.44 1.49-.88 2.97-1.25 4.48-.53 2.14.49 4.55 2.35 5.76 1.51.99 2.99.82 4.5.1 1.63-.78 3.2-1.66 4.9-2.28.73-.27 1.49-.45 2.25-.58 1.46-.25 3.01.96 3.34 2.53.24 1.18-.07 2.22-.6 3.24-1.43 2.76-3.62 4.74-6.28 6.28-3.68 2.12-7.46 4.05-11.29 5.88-2.23 1.07-4.6 1.5-7.12 1.32-1.87-.13-3.72-.21-5.49-.84-3.09-1.1-5.43-3.03-6.61-6.17-.51-1.35-.78-2.76-.72-3.85ZM94.31 106.64H3.26c-.43 0-.85 0-1.28.01-.29.01-.43-.06-.42-.39.02-.47.01-.93 0-1.4 0-.25.09-.34.34-.34.64.01 1.28 0 1.92 0h180.77c.68 0 1.36.02 2.04 0 .31 0 .43.11.41.4v.12c-.05.5.2 1.14-.1 1.46-.31.33-.95.1-1.45.1H94.32v.02ZM25.82 36.59c-1.12-.13-2.4 0-3.68-.18-3.49-.52-4.31-3.8-3.71-6 .58-2.11 1.86-3.82 3.24-5.46 2.03-2.41 4.61-3.95 7.74-4.45 2.04-.33 4.11-.38 6.14.06 1.97.43 3.01 1.74 2.97 3.75-.05 2.91-.4 5.77-2.1 8.27-1.47 2.16-3.61 3.2-6.09 3.7-1.44.29-2.89.28-4.5.3Z"/><path class="cls-2" d="M174.93 132.49c0-1.3.01-2.6 0-3.9 0-.34.06-.46.44-.44 1.14.05 2.29.02 3.43.07 1.29.06 2.15.73 2.5 1.97.42 1.54.43 3.1.03 4.65-.31 1.18-1.1 1.83-2.3 1.98-1.25.16-2.52.07-3.78.11-.35 0-.3-.2-.3-.42v-4.01Zm1.45.06c0 .43-.02.85 0 1.28.03.59-.24 1.37.16 1.71.4.34 1.15.06 1.75.02.94-.06 1.46-.49 1.64-1.42.21-1.05.23-2.12.02-3.17-.2-1.01-.79-1.47-1.83-1.49-.43 0-.85.02-1.28 0-.35-.02-.47.1-.46.46.02.87 0 1.74 0 2.61ZM174.44 21.97c-1.23.4-1.9-.13-2.3-1.21-.19-.5-.52-.95-.72-1.45-.16-.42-.42-.54-.84-.52-1.11.06-.94-.22-.98 1-.02.58-.03 1.17 0 1.75.03.43-.15.52-.53.52-.89 0-.89.01-.89-.88 0-2.46 0-4.93-.01-7.39 0-.41.11-.52.52-.51 1.12.03 2.25-.08 3.37.04 1.1.12 1.81.7 2 1.78.17.9.19 1.82-.4 2.63-.15.21-.31.44-.55.5-.6.16-.41.46-.21.83.53.96 1.03 1.94 1.54 2.92Zm-4.85-5.91q0 1.51 1.54 1.42c.13 0 .27-.03.4-.04.71-.08 1.04-.39 1.09-1.1.09-1.15-.17-1.79-1.57-1.74-1.47.06-1.47.02-1.46 1.47ZM175.68 17.64c.04-.66.04-1.32.19-1.96.34-1.54 1.15-2.33 2.7-2.54.71-.1 1.45-.08 2.14.11.98.28 1.65.94 1.92 1.93.45 1.62.48 3.25.02 4.88-.32 1.12-1.02 1.84-2.2 2.05-.85.16-1.7.15-2.54-.06-1.21-.31-2-1.43-2.15-3.01-.05-.46-.05-.93-.08-1.39Zm5.77-.06c.02-.48-.03-1.02-.11-1.56-.16-1.03-.82-1.62-1.84-1.65-1.27-.04-1.94.43-2.16 1.54-.24 1.23-.21 2.47.05 3.69.15.68.56 1.15 1.27 1.26.32.05.66.04.99.03.9-.03 1.38-.41 1.62-1.29.17-.64.19-1.3.18-2.03ZM124.96 118.39v1.8c0 .22 0 .43-.25.53-1.45.58-2.93.74-4.43.22-1.18-.41-1.74-1.36-1.99-2.52-.3-1.35-.29-2.7.15-4.02.42-1.27 1.3-2.02 2.65-2.21 1.09-.15 2.16-.07 3.22.23.56.16.23.57.28.86.06.37-.26.23-.44.22-.93-.07-1.85-.18-2.78 0-.73.14-1.26.51-1.49 1.22-.39 1.23-.41 2.49-.03 3.72.29.96.99 1.43 2 1.48q1.72.08 1.71-1.6 0-.85-.88-.85c-.68 0-.99-.48-.75-1.14.07-.19.21-.14.33-.15.8 0 1.59 0 2.39-.01.27 0 .32.11.32.34v1.86ZM60.08 132.15c0 1.43-.02 2.87.01 4.3 0 .38-.23.39-.43.45-.25.07-.62.18-.72-.13-.16-.51-.43-.33-.7-.19-.57.31-1.16.56-1.81.56-.94 0-1.72-.62-1.99-1.57-.31-1.08-.34-2.18-.11-3.28.43-2.07 2.01-2.44 3.7-1.76.63.25.62.28.62-.37 0-.79.01-1.59-.01-2.38-.01-.33.11-.42.43-.42 1.03 0 1.03-.02 1.03 1.03v3.78h-.02Zm-1.43 1.53v-.7c0-1.33 0-1.31-1.33-1.51-1.02-.16-1.4.38-1.54 1.15-.13.68-.12 1.39-.03 2.09.1.82.69 1.26 1.51 1.15.25-.03.49-.1.74-.14.48-.09.73-.34.67-.87-.05-.38 0-.78-.01-1.16ZM140.96 132.14v4.3c0 .18.13.49-.22.48-.32 0-.8.22-.94-.18-.19-.53-.42-.3-.68-.16-.69.38-1.39.69-2.2.5-.78-.18-1.31-.66-1.55-1.42-.37-1.19-.38-2.41-.09-3.62.44-1.77 1.73-2.13 3.46-1.6.79.24.78.28.77-.55 0-.7 0-1.4-.01-2.09 0-.3.06-.44.41-.44 1.09-.03 1.09-.04 1.09 1.06v3.72h-.03Zm-1.44 1.52v-.58c0-1.44-.17-1.61-1.67-1.61-.56 0-.92.25-1.08.78-.19.62-.19 1.26-.17 1.9.06 1.55.66 1.99 2.16 1.58.06-.01.11-.05.16-.06.46-.07.65-.32.61-.8-.04-.4 0-.81 0-1.22ZM75.24 132.17c0 1.42-.01 2.83.01 4.25 0 .31-.13.49-.37.5-.29.01-.71.24-.84-.22-.12-.4-.31-.29-.55-.16-.68.38-1.38.68-2.2.55-.87-.14-1.41-.64-1.66-1.43-.39-1.23-.39-2.48-.05-3.72.34-1.25 1.12-1.77 2.41-1.68.47.03.93.12 1.34.33.35.18.47.14.46-.28-.03-.76.01-1.51-.03-2.27-.02-.5.08-.78.65-.66.07.02.16 0 .23 0 .47-.07.61.16.61.6-.01 1.4 0 2.79 0 4.19h-.01Zm-1.44 1.47v-.52c0-1.51-.08-1.58-1.59-1.64-.65-.03-.98.19-1.17.81-.25.85-.25 1.73-.09 2.59.15.78.66 1.1 1.45.98.25-.04.49-.1.74-.15.49-.11.77-.33.68-.91-.06-.38-.01-.77-.01-1.16ZM156.09 131.98c0 1.38.01 2.76 0 4.13 0 .66-.21.84-.79.83-.16 0-.35 0-.37-.19-.08-.54-.39-.3-.63-.18-.47.23-.93.45-1.47.52-1.11.14-2.02-.37-2.35-1.44-.4-1.31-.41-2.65.02-3.95.44-1.35 1.91-1.86 3.44-1.24.05.02.11.04.16.07.48.32.58.09.57-.38-.02-.76.01-1.51-.01-2.27-.01-.38.07-.55.5-.54.94.02.94 0 .94.96v3.67Zm-1.43 1.7v-.7q0-1.29-1.28-1.49c-.95-.15-1.49.24-1.62 1.2-.08.65-.09 1.31-.03 1.97.08.85.64 1.31 1.48 1.22.25-.03.5-.06.74-.13.46-.12.8-.32.71-.91-.06-.38-.01-.77-.01-1.16ZM106.46 116.32v4.25c0 .18.16.5-.18.51-.35 0-.82.26-1.04-.22-.15-.33-.28-.27-.52-.13-.65.37-1.34.59-2.1.53-.87-.07-1.45-.53-1.72-1.34-.41-1.24-.44-2.52-.11-3.78.44-1.63 1.49-1.96 3.18-1.58 1.08.24 1.06.3 1.04-.81 0-.6 0-1.2-.01-1.8-.01-.33.12-.42.43-.42 1.01 0 1.02-.02 1.03.96v3.84Zm-1.43 1.49h-.05c0-.62.15-1.29-.05-1.83-.13-.36-.84-.17-1.27-.32-.05-.02-.11-.02-.17-.02-.68-.07-1.06.19-1.24.85-.15.53-.15 1.07-.14 1.61.03 1.8.56 2.18 2.31 1.75.45-.11.68-.27.62-.77-.05-.42 0-.85 0-1.28ZM190 136.88q-1.56.17-1.98-1.21c-.35-1.18-.35-1.18-1.57-1.17-.6 0-1.3-.16-1.77.1-.46.25-.4 1.03-.61 1.57-.33.86-.33.88-1.78.71.43-1.32.85-2.65 1.28-3.96.49-1.48 1.01-2.96 1.49-4.45.1-.31.24-.41.54-.33.09.02.19.02.29.02 1.21.02 1.22.02 1.6 1.14.84 2.5 1.66 5.01 2.51 7.58Zm-3.86-7.45c-.41 1.33-.79 2.53-1.18 3.78.66 0 1.26-.02 1.86 0 .37.01.43-.11.33-.44-.33-1.06-.64-2.13-1.01-3.35ZM35.76 127.52c.39-.32.84-.11 1.27-.13.21 0 .14.23.14.38 0 .76-.01 1.51 0 2.27 0 .7.01.7.65.46.53-.2 1.09-.27 1.65-.28.88 0 1.71.63 1.92 1.5.3 1.22.37 2.46.02 3.68-.43 1.52-1.96 2.17-3.37 1.43-.17-.09-.34-.19-.51-.28-.28-.15-.48-.23-.65.2-.16.4-.61.14-.93.18-.26.04-.24-.18-.21-.36.09-3.02.09-6.03.02-9.05Zm1.38 6.08v.64c0 1.36.14 1.52 1.52 1.62.76.05 1.2-.28 1.39-1.02.11-.42.1-.84.09-1.27-.02-1.95-.63-2.42-2.53-1.97-.31.07-.47.23-.47.55v1.45ZM160.48 17.65v-3.9c0-.35.06-.49.48-.47 1.12.05 2.25.03 3.38.04.9.01 1.52.48 1.82 1.29.37.99.38 2.01-.02 3.01-.36.9-1.08 1.27-2.01 1.29h-1.8c-.3 0-.4.1-.4.41.02.76-.03 1.51 0 2.27.02.41-.13.5-.5.48-1.09-.05-.92.17-.94-.92-.02-1.16 0-2.33 0-3.49Zm1.43-1.49q0 1.5 1.53 1.48h.46c.26-.01.5-.12.65-.33.48-.63.44-1.33.21-2.04-.21-.65-.74-.67-1.32-.67-1.54.02-1.54 0-1.54 1.56ZM151.01 118.69v1.92c0 .18.11.46-.19.45-.34 0-.83.25-.99-.2-.14-.41-.29-.23-.49-.14-.74.35-1.49.63-2.34.48-1.02-.17-1.52-.75-1.53-1.85 0-1.23.47-1.87 1.53-2.04.76-.13 1.51-.05 2.24.18.28.09.36.07.39-.25.07-1.02-.27-1.46-1.29-1.6-.64-.09-1.28.02-1.91.07-.16.01-.45.19-.47-.11-.02-.29-.21-.74.22-.87 1.23-.37 2.49-.45 3.72-.08.63.19.95.75 1.06 1.42.14.87.06 1.74.06 2.61Zm-2.88 1.4c.3.01.72-.15 1.14-.28.3-.09.36-.32.34-.59-.02-.24.15-.56-.17-.67-.68-.25-1.39-.34-2.1-.09-.18.06-.27.21-.33.38-.27.79.08 1.24 1.12 1.25ZM125.85 134.4v2.09c0 .19.04.45-.25.43-.32-.02-.79.25-.92-.19-.14-.44-.33-.26-.53-.16-.73.39-1.49.63-2.34.49-1-.17-1.5-.76-1.51-1.87 0-1.16.51-1.86 1.5-2.01.72-.11 1.44-.1 2.12.14.41.15.49-.02.5-.38.02-.94-.26-1.31-1.19-1.45-.64-.09-1.28-.01-1.91.06-.17.02-.48.18-.52-.14-.04-.3-.12-.68.29-.85.18-.07.37-.12.56-.15.75-.14 1.5-.14 2.26-.11 1.08.05 1.82.75 1.88 1.82.04.75 0 1.51 0 2.27h.05Zm-2.77-.24v.02c-.13 0-.27-.01-.4 0-.68.08-.9.33-.88.96.02.6.21.77.95.8.35.02.68-.09 1.02-.16.58-.12.72-.47.7-.99-.03-.55-.48-.46-.8-.56-.18-.06-.38-.05-.57-.08ZM33.58 134.46v2.04c0 .19.04.44-.25.43-.31-.02-.78.22-.89-.15-.17-.55-.42-.3-.66-.17-.72.4-1.45.61-2.28.45-1.03-.2-1.5-.84-1.47-2.03.03-1.07.57-1.7 1.55-1.85.74-.11 1.47-.06 2.18.17.3.09.41.06.43-.29.05-.97-.38-1.5-1.35-1.59-.6-.05-1.2 0-1.8.08-.18.02-.47.2-.52-.13-.05-.3-.13-.67.29-.85.36-.15.75-.21 1.13-.23.62-.04 1.24-.06 1.86-.01.88.06 1.58.76 1.7 1.64.12.83.07 1.67.07 2.5Zm-2.94 1.47c.31.02.65-.12 1.01-.21.5-.12.53-.47.55-.88.02-.47-.31-.5-.63-.59-.5-.13-.99-.12-1.49-.01-.34.07-.48.29-.53.6-.14.79.15 1.11 1.1 1.09ZM67.59 134.46v1.98c0 .2.1.49-.24.48-.32 0-.76.24-.92-.21-.15-.42-.33-.26-.55-.14-.71.39-1.45.63-2.28.5-1.02-.15-1.56-.79-1.57-1.89 0-1.19.52-1.85 1.57-2.01.72-.11 1.43-.07 2.12.17.37.13.46.03.47-.34.03-1.01-.31-1.41-1.33-1.52-.62-.07-1.24.02-1.85.08-.16.01-.48.2-.49-.17-.01-.28-.14-.64.26-.81.36-.15.75-.22 1.13-.24.64-.03 1.28-.05 1.92-.02.83.05 1.55.74 1.69 1.58.14.85.06 1.7.07 2.55Zm-1.38.54c0-.3.02-.54-.28-.63-.62-.18-1.25-.28-1.89-.1-.49.13-.52.52-.51.92 0 .38.13.65.58.74.54.11 1.03-.04 1.53-.18.42-.12.62-.36.57-.74ZM94.11 117.61c.2-1.45-.2-1.95-1.59-2-.49-.02-.97.04-1.45.1-.18.02-.5.22-.56-.17-.05-.32-.11-.68.31-.83.2-.07.41-.12.61-.16.77-.15 1.55-.13 2.32-.08.93.07 1.62.72 1.74 1.66.19 1.55.06 3.1.08 4.65 0 .19-.08.31-.27.3-.31-.02-.74.21-.89-.18-.18-.48-.42-.27-.66-.14-.75.41-1.52.67-2.39.45-.93-.23-1.4-.92-1.36-2.08.03-.99.57-1.62 1.48-1.79.91-.17 1.77 0 2.63.27Zm-1.53 2.49c.27.01.62-.11.98-.19.5-.12.62-.41.62-.89 0-.5-.35-.52-.69-.61-.35-.09-.69-.11-1.04-.08-.73.05-.99.34-.95 1.02.03.59.23.75 1.09.75ZM148.47 134.48c0 .64-.02 1.28.01 1.92.02.31-.09.47-.37.51-.3.05-.68.18-.83-.17-.17-.41-.35-.3-.61-.14-.66.39-1.37.61-2.16.5-1.02-.15-1.58-.77-1.61-1.8-.03-1.25.46-1.94 1.52-2.11.73-.12 1.47-.1 2.17.17.31.12.43.12.45-.28.05-1.01-.31-1.48-1.31-1.59-.62-.07-1.24 0-1.85.09-.16.02-.44.16-.47-.15-.03-.28-.2-.62.21-.81.29-.13.58-.19.89-.24.75-.12 1.51-.11 2.26-.05.81.07 1.42.7 1.6 1.54.1.44.09.89.09 1.33v1.28Zm-2.79-.33v.03h-.29c-.8.06-1.02.29-.99 1.03.03.58.28.77 1.06.74.34-.01.68-.12 1.02-.19.48-.11.6-.43.59-.9-.01-.48-.34-.5-.65-.58-.24-.06-.49-.09-.74-.13ZM79.67 117.84c0 .53-.04 1.05-.22 1.55-.45 1.27-1.74 2.02-3.2 1.87-1.51-.16-2.48-1.04-2.7-2.44-.14-.84-.12-1.66.13-2.47.34-1.12 1.13-1.73 2.26-1.9.66-.1 1.32-.1 1.95.16 1.23.5 1.78 1.52 1.78 3.23Zm-1.42-.03c-.03-.43-.07-.85-.22-1.26-.25-.7-.7-1.03-1.44-1.03-.73 0-1.24.34-1.45 1.05-.22.73-.25 1.49-.07 2.24.22.92.7 1.3 1.6 1.28.83-.02 1.3-.44 1.46-1.35.06-.3.08-.61.12-.92ZM97.56 132.54c0-1.3.02-2.6 0-3.9 0-.42.12-.49.52-.48 1.47.03 2.95.02 4.42 0 .35 0 .43.07.43.41-.01.93 0 .93-.92.93-.83 0-1.67.01-2.5-.02-.37-.01-.53.1-.51.48.02.62.02 1.24 0 1.86 0 .31.11.4.41.4.85-.02 1.71 0 2.56-.03.35-.01.46.1.41.43-.02.15-.03.31-.01.46.05.38-.13.45-.47.44-.81-.02-1.63 0-2.44 0-.33 0-.47.1-.46.47.03.83-.02 1.67.01 2.5.01.36-.08.47-.45.47-.99 0-1 .02-1-.98v-3.43ZM41.22 117.83c0 .53-.03 1.05-.2 1.55-.45 1.33-1.62 1.98-3.31 1.85-1.4-.11-2.37-.96-2.59-2.31-.16-.95-.16-1.88.18-2.8.2-.53.52-.96 1-1.23 1.1-.63 2.26-.64 3.4-.14 1.09.48 1.42 1.46 1.49 2.56.01.17.02.35.02.52Zm-4.72 0c0 .37.04.74.13 1.1.19.79.71 1.16 1.58 1.14.77-.02 1.3-.43 1.44-1.17.13-.71.14-1.43 0-2.14-.15-.76-.77-1.26-1.53-1.24-.78.02-1.36.5-1.49 1.27-.06.34-.08.69-.12 1.04ZM158.67 117.77c0 1.37-.25 2.51-1.51 3.14-1.57.79-3.63.29-4.27-1.11-.62-1.35-.58-2.74.06-4.09.17-.36.46-.63.8-.82 1.23-.66 2.48-.68 3.7.02.82.47 1.06 1.29 1.17 2.16.04.27.04.54.05.7Zm-4.71.05c0 .37.04.74.12 1.1.19.81.7 1.18 1.63 1.15.78-.02 1.29-.48 1.41-1.27.1-.66.1-1.31 0-1.97-.14-.81-.73-1.32-1.52-1.32-.8 0-1.38.5-1.52 1.32-.05.32-.08.65-.11.98ZM13.5 133.75c-.01.16-.02.45-.06.74-.15 1.13-.64 2.05-1.79 2.41-1.24.38-2.45.34-3.48-.6-.45-.41-.67-.95-.77-1.53-.11-.65-.14-1.3-.04-1.96.26-1.6 1.18-2.46 2.81-2.54 1.59-.08 2.65.54 3.1 1.8.18.5.2 1.02.22 1.67Zm-4.71-.05c-.01.39 0 .78.13 1.15.24.75.7 1.08 1.52 1.09.73 0 1.26-.36 1.46-1.09.21-.8.24-1.61-.05-2.41-.27-.75-.78-1.11-1.53-1.07-.76.04-1.24.46-1.41 1.23-.08.36-.13.73-.11 1.1ZM32.25 119.91c.33-.02.66-.03.99-.06.18-.01.44-.14.44.18 0 .27.25.67-.18.81-1.16.4-2.35.54-3.54.18-.9-.27-1.5-.92-1.83-1.81-.53-1.45-.56-2.93-.2-4.41.42-1.72 1.75-2.74 3.59-2.64.58.03 1.15.14 1.72.28.54.13.36.52.37.83.01.42-.3.24-.5.25-.62 0-1.23-.11-1.86-.04-.95.11-1.55.61-1.81 1.51-.31 1.07-.31 2.15-.03 3.22.29 1.09.86 1.54 1.97 1.65.29.03.58 0 .87 0v.04ZM90.55 134.17H88.8c-.32 0-.4.13-.36.43.07.58.45 1.02 1.05 1.18.79.21 1.58.08 2.37 0 .16-.02.44-.17.47.13.03.27.15.67-.18.79-1.21.44-2.44.65-3.67.07-1.03-.49-1.34-1.44-1.48-2.47-.25-1.79.39-3.28 1.77-3.8 1.37-.52 3.03-.36 3.65 1.02.35.77.27 1.59.25 2.41 0 .26-.2.24-.38.24h-1.75v.02Zm-.69-.97v-.03h1.16c.29 0 .4-.09.39-.41-.03-.81-.44-1.32-1.17-1.41-.89-.1-1.53.3-1.73 1.09-.17.68-.11.76.6.75h.75ZM80.49 134.16H78.8c-.43 0-.49.2-.37.55.22.64.62 1.06 1.32 1.15.66.08 1.31.02 1.97-.06.2-.02.54-.23.61.16.06.35.04.69-.42.82-1.24.35-2.46.55-3.65-.14-.12-.07-.23-.14-.33-.23-1.03-.88-1.31-3.29-.55-4.73.59-1.12 2.27-1.74 3.67-1.35.82.23 1.52 1.08 1.61 2.02.04.48 0 .97.02 1.45 0 .32-.16.38-.43.38-.58-.01-1.16 0-1.75 0Zm-.6-.95v-.03h1.22c.16 0 .34 0 .34-.28 0-.92-.52-1.52-1.37-1.55-.99-.04-1.58.5-1.65 1.45-.02.3.05.43.36.41.37-.02.73 0 1.1 0ZM161.16 134.17c-.56 0-1.13.01-1.69 0-.43-.01-.49.18-.38.54.22.76.58 1.07 1.4 1.17.68.08 1.35-.01 2.03-.09.15-.02.4-.14.43.12.03.24.14.52-.16.73-1.93 1.39-4.79.19-5.13-2.14-.1-.66-.09-1.31.04-1.97.26-1.28 1.24-2.15 2.54-2.25.56-.04 1.14-.1 1.66.14 1 .46 1.37 1.3 1.4 2.35.05 1.4.06 1.4-1.34 1.39h-.82Zm-.68-.96h.75q.96-.02.69-.93c-.19-.66-.65-.96-1.41-.91-.79.05-1.31.45-1.42 1.12-.12.73-.11.74.63.73h.75ZM42.95 117.8v-2.68c0-.17-.11-.5.14-.48.3.03.72-.24.9.14.19.41.4.25.64.13.73-.37 1.5-.52 2.3-.49.89.03 1.44.51 1.61 1.38.16.81.07 1.62.08 2.44.02.8-.01 1.59.01 2.39 0 .35-.1.51-.46.47-.15-.02-.31-.01-.47 0-.36.03-.51-.09-.51-.48 0-1.34-.03-2.68-.06-4.01-.02-.7-.25-.92-.95-.96h-.12c-1.55 0-1.69.14-1.69 1.66 0 1.11-.01 2.21.02 3.32.01.39-.11.53-.49.49-.17-.02-.35-.02-.52 0-.34.03-.43-.13-.43-.44.01-.95 0-1.9 0-2.85ZM129.94 118.31h-1.63c-.51-.01-.6.23-.44.66.2.52.53.89 1.11 1 .76.15 1.51.04 2.26-.03.16-.01.46-.17.48.1.02.27.18.66-.23.81-1.31.48-2.66.72-3.9-.11-1.29-.87-1.29-2.27-1.18-3.62.11-1.29.77-2.21 2.06-2.59.65-.19 1.31-.2 1.96-.04.98.24 1.6 1.15 1.65 2.34q.06 1.48-1.38 1.47h-.76Zm-.65-.94v-.03h1.28c.16 0 .3-.02.3-.25.02-.84-.54-1.52-1.31-1.57-.98-.06-1.57.43-1.71 1.33-.07.47.08.58.51.53.31-.03.62 0 .93 0ZM111.56 118.33c-.58 0-1.16.01-1.75 0-.32 0-.39.13-.37.42.05.63.44 1.06 1.07 1.19.79.17 1.58.06 2.37-.01.15-.01.41-.16.43.11.01.28.19.7-.18.82-1.35.44-2.73.69-4.02-.17-.86-.57-1.02-1.51-1.12-2.45-.17-1.64.38-2.92 1.53-3.5.9-.45 1.85-.44 2.78-.16.65.2 1.05.71 1.24 1.36.02.06.01.12.03.17.17.63.28 1.36.04 1.89-.31.69-1.12.15-1.69.29-.11.03-.23 0-.35 0v.02Zm-.75-.97v-.02h1.22c.26 0 .37-.09.36-.38 0-.85-.39-1.33-1.19-1.44-.85-.11-1.55.34-1.72 1.1-.15.66-.09.73.57.73h.75ZM0 132.69c-.02-1.11.07-2.01.49-2.84.52-1.05 1.33-1.68 2.52-1.79.86-.08 1.69.05 2.53.26.52.13.31.5.33.79.03.4-.26.27-.48.26-.66-.01-1.31-.11-1.97-.02-.91.13-1.48.65-1.73 1.5-.34 1.12-.3 2.27.02 3.38.26.9.91 1.44 1.86 1.51.64.05 1.28 0 1.92 0 .16 0 .43-.23.45.12.01.27.23.67-.18.82-1.15.42-2.34.57-3.53.2-1.3-.41-1.83-1.44-2.09-2.69-.12-.56-.09-1.12-.14-1.48ZM15.25 133.73v-2.79c0-.15-.1-.42.16-.42.27 0 .66-.22.8.09.2.42.44.3.7.16.73-.38 1.5-.53 2.33-.48.78.05 1.42.51 1.55 1.29.2 1.14.06 2.28.09 3.43.01.48-.03.97 0 1.45.02.36-.11.5-.46.49-.15 0-.31-.02-.47 0-.38.05-.49-.08-.48-.47.02-1.22 0-2.44-.01-3.67-.02-1.17-.45-1.53-1.61-1.32-1.41.26-1.19.05-1.22 1.43-.02 1.18-.03 2.37-.01 3.55 0 .36-.09.5-.45.47-.19-.02-.39-.02-.58 0-.31.02-.39-.1-.38-.41.03-.93 0-1.86 0-2.79h.01ZM62.83 117.86v2.74c0 .17.11.45-.18.46-.28.01-.68.23-.83-.15-.18-.43-.43-.31-.69-.19-.6.28-1.22.49-1.89.55-1.15.11-2.07-.66-2.08-1.82-.02-1.48.02-2.95 0-4.43 0-.36.12-.4.44-.38.96.06.96.04.96 1.01 0 1.09 0 2.17.02 3.26.02.87.26 1.08 1.13 1.11.12 0 .23 0 .35-.02q1.36-.19 1.36-1.58c0-1.11.01-2.21 0-3.32 0-.33.05-.47.44-.47.97.02.98 0 .98.96v2.27ZM110.63 130.26c.54.02 1.08.05 1.6.23.48.16.39.54.35.86-.06.41-.36.15-.55.13-.73-.1-1.46-.19-2.2-.04-.42.08-.59.33-.58.73.01.39.17.64.61.71.59.09 1.18.24 1.77.34.72.12 1.15.52 1.26 1.24.23 1.51-.26 2.38-1.74 2.58-.95.13-1.88.05-2.81-.24-.47-.15-.58-.46-.49-.83.1-.4.44-.15.67-.12.75.1 1.51.12 2.26.08.49-.03.72-.29.75-.77.03-.49-.26-.64-.66-.72-.61-.12-1.21-.23-1.81-.37-.73-.17-1.1-.66-1.17-1.4-.07-.71.06-1.34.65-1.82.61-.5 1.33-.58 2.08-.56ZM136.3 114.42c.5.02 1 .04 1.49.2.29.1.43.26.45.59.02.43-.09.56-.53.43-.64-.19-1.31-.17-1.96-.12-.41.03-.82.14-.83.69-.01.54.23.8.79.84.52.04 1.02.19 1.53.31.94.22 1.3.66 1.35 1.62.06 1.14-.29 1.81-1.2 2.06-1.16.32-2.33.27-3.48-.13-.45-.16-.42-.47-.36-.79.09-.45.39-.13.6-.11.73.07 1.47.13 2.2.06.47-.04.81-.2.84-.76.03-.57-.38-.66-.78-.75-.55-.13-1.1-.24-1.64-.35-.62-.13-1.07-.45-1.16-1.13-.11-.79-.1-1.56.6-2.12.62-.49 1.34-.57 2.09-.54ZM52.88 121.27c-.79-.04-1.44-.12-2.08-.3-.36-.11-.46-.3-.46-.67s.11-.44.43-.36c.8.19 1.62.15 2.43.12.49-.02.81-.21.8-.77 0-.36-.12-.59-.5-.66-.53-.09-1.06-.21-1.59-.32-1.03-.2-1.48-.64-1.54-1.52-.08-1.19.34-1.94 1.35-2.21.99-.26 1.99-.22 2.98.08.5.15.36.56.33.87-.05.41-.36.14-.55.12-.69-.09-1.38-.18-2.08-.07-.45.07-.71.26-.71.74 0 .45.23.65.66.72.59.09 1.19.2 1.77.34.94.24 1.28.73 1.28 1.79s-.39 1.67-1.27 1.9c-.45.11-.92.15-1.25.2ZM168.19 132.51v-3.95c0-.3.08-.38.38-.39 1.05-.03 1.06-.04 1.06 1.04 0 1.92.02 3.84 0 5.76 0 .51.11.72.67.68.85-.05 1.71 0 2.56-.02.37-.01.5.06.48.47-.05.79-.02.8-.81.81-1.28.01-2.56 0-3.84.03-.36 0-.5-.07-.49-.47.03-1.32.01-2.64.01-3.95ZM68.83 118c0-.58-.02-1.16 0-1.74.02-.39-.11-.54-.49-.5-.73.07-.38-.51-.45-.8-.11-.42.23-.37.47-.36.42.03.56-.14.48-.54-.03-.15.02-.31 0-.46-.04-.28.02-.44.35-.44.34 0 .74-.36.99-.16.23.19.05.65.03.99-.02.51.1.78.67.66.11-.02.24.02.35 0 .61-.16.7.14.68.67-.02.39-.13.47-.5.46-1.16-.03-1.17-.02-1.17 1.15 0 .78 0 1.55.03 2.33.03.74.2.9.95.9.14 0 .27-.03.41-.02.2.01.51-.22.54.19.02.29.06.64-.36.75-.58.15-1.16.3-1.77.18-.73-.15-1.16-.6-1.19-1.35-.02-.62 0-1.24 0-1.86ZM140.56 118.01c0-.58-.02-1.17 0-1.75.01-.35-.05-.58-.46-.52-.51.08-.43-.27-.44-.58-.01-.31-.07-.6.41-.56.41.04.59-.13.53-.58-.03-.27-.18-.66.1-.81.35-.18.78-.22 1.18-.28.22-.03.14.16.14.29-.01.35 0 .7-.03 1.05-.02.31.12.42.41.38.19-.02.39-.02.58-.02.67-.02.87.25.7.92-.06.23-.2.18-.35.18-1.36.04-1.36.04-1.35 1.41 0 .72.04 1.44.03 2.15 0 .61.32.82.87.82.17 0 .35-.01.52 0 .19 0 .5-.24.51.2 0 .29.11.64-.36.73-.57.11-1.13.27-1.72.18-.81-.13-1.24-.59-1.27-1.4v-1.8ZM23.36 133.9c0-.6-.03-1.21 0-1.81.02-.39-.12-.55-.49-.5-.46.06-.43-.24-.43-.55 0-.32-.04-.67.45-.61.4.05.52-.12.48-.48-.02-.19 0-.39 0-.58-.01-.22.02-.38.3-.38.37 0 .78-.36 1.05-.17.26.19.07.67.05 1.02-.02.55.15.75.69.64.11-.02.23 0 .35 0 .72 0 .72 0 .66.69-.02.29-.12.39-.42.4-1.28.04-1.28.05-1.28 1.34 0 .81-.03 1.63.06 2.44.04.38.18.55.57.56.27.01.54.02.81 0 .18-.02.42-.13.5.14.07.24.07.52-.12.72-.42.43-2.15.42-2.66.01-.37-.29-.58-.65-.57-1.15.02-.58 0-1.16 0-1.75ZM117.77 131.56c-.36 0-.65-.01-.94 0-.49.02-.86.28-1.04.71-.36.87-.4 1.78-.04 2.66.31.75.67.9 1.94.92.21 0 .42-.07.63-.07.18 0 .48-.2.51.16.02.28.15.59-.24.81-1.17.65-3.09.34-3.91-.66-.46-.57-.6-1.26-.63-1.96-.07-1.28.05-2.5 1.22-3.35.76-.55 2.58-.66 3.35-.13.31.21.19.47.16.73-.03.32-.27.21-.44.21-.21 0-.43-.02-.57-.03ZM129.42 132.12c0 1.44-.02 2.87 0 4.31 0 .43-.16.55-.54.51-.17-.02-.35-.01-.52 0-.29.02-.35-.11-.35-.38v-8.33c0-.89 0-.87.89-.87.39 0 .53.08.52.51-.03 1.42-.01 2.83-.01 4.25ZM48.79 132.14c0 1.44-.02 2.87.01 4.31.02.7-.46.45-.79.49-.34.03-.62.05-.61-.49.03-2.83.02-5.67 0-8.5 0-.5.16-.65.63-.6.4.04.83-.14.8.6-.06 1.39-.02 2.79-.02 4.19h-.01ZM66.28 116.27c0 1.44-.03 2.87.01 4.3.02.69-.44.48-.77.51-.35.02-.68.07-.68-.5.02-2.89 0-5.78 0-8.67 0-.31.11-.39.4-.4 1.01-.05 1.02-.06 1.02.92v3.84h.02ZM81.44 117.88v-2.85c0-.18-.04-.5.25-.38.31.12.85-.39.94.28.05.37.23.27.44.21.57-.18 1.13-.37 1.7-.56.25-.08.38-.06.38.28 0 1.09 0 1.09-1.09 1.21q-1.22.13-1.22 1.34c0 1.07-.03 2.13-.01 3.2 0 .35-.09.51-.45.48-.19-.01-.39-.01-.58 0-.31.02-.39-.11-.38-.42.02-.93 0-1.86 0-2.79h.01ZM52.41 133.74c0 .91-.02 1.82 0 2.73.01.4-.14.48-.5.48-.95 0-.95.01-.96-.92 0-1.68 0-3.37-.01-5.05 0-.39.08-.53.51-.5.96.07.96.04.95 1v2.26ZM87.83 117.89c0 .89-.02 1.78 0 2.68.01.41-.12.57-.53.52-.19-.02-.39-.01-.58-.01-.23 0-.36-.07-.35-.34v-5.76c0-.23.1-.31.3-.32.1 0 .19-.01.29-.01.87-.01.88-.01.89.86v2.39h-.01ZM43.5 133.7v-2.79c0-.34.06-.47.45-.43 1.02.11 1.02.08 1.02 1.13 0 1.59-.02 3.18 0 4.77 0 .64-.43.54-.81.56-.41.02-.69 0-.66-.57.05-.89.01-1.78.01-2.68ZM105.75 133.7c0 .91-.02 1.82 0 2.73.01.37-.18.46-.46.51-.86.13-.96.05-.96-.81 0-1.71 0-3.41-.01-5.12 0-.39.09-.59.51-.52.09.01.2.01.29-.01.55-.14.65.12.64.61-.03.87 0 1.75 0 2.62ZM131.83 133.68c0-.93.01-1.86 0-2.79 0-.33.07-.42.42-.4 1 .05 1.01.03 1.01 1.05v4.59c0 .81 0 .79-.81.81-.46.01-.64-.09-.61-.6.05-.89.01-1.78.01-2.67ZM147.39 111.98c.47 0 .84.27 1.24.46.52.24 1.04.46 1.51-.13.19-.24.38 0 .54.12.15.12.21.22.07.43-.51.79-1.14 1.23-2.19.76-.25-.11-.49-.23-.73-.35-.44-.22-.86-.23-1.21.18-.16.18-.3.22-.49.06-.18-.15-.34-.28-.21-.58.25-.54.86-.96 1.48-.95ZM166.54 136.4c-.08 1.02-.43 1.86-.98 2.63-.19.27-.4.32-.69.13-.33-.22-.05-.39.02-.58.13-.32.25-.64.4-.96.15-.33.14-.56-.24-.74-.54-.26-.41-.79-.33-1.23.08-.42.49-.44.84-.45.46-.02.79.16.89.64.04.21.07.42.1.56ZM161.88 120.79c-.08.82-.42 1.68-1.03 2.44-.16.2-.35.28-.6.13-.28-.17-.13-.35-.05-.54.12-.28.23-.57.35-.85.18-.42.29-.76-.3-1.01-.42-.18-.22-.69-.22-1.05 0-.3.22-.4.49-.47.93-.23 1.37.15 1.36 1.36ZM87.04 113.44c-.54 0-.77-.23-.78-.77 0-.57.32-.89.89-.88.48.01.82.33.83.79.01.63-.24.87-.94.86ZM105.01 129.27c-.6-.01-.81-.23-.8-.85 0-.51.3-.77.87-.77.61 0 .8.21.8.86 0 .62-.18.77-.87.76ZM132.58 129.28c-.66 0-.89-.23-.89-.85 0-.5.3-.74.9-.73.58 0 .79.21.8.75 0 .67-.16.84-.81.83ZM51.71 129.28c-.65 0-.86-.19-.85-.81 0-.58.2-.76.83-.76.63 0 .83.17.84.74 0 .65-.17.82-.82.83ZM45.06 128.49c0 .64-.16.79-.83.79-.65 0-.81-.15-.82-.75 0-.64.2-.84.87-.83.6 0 .79.2.78.79Z"/></svg>